<svg width="22" height="23" viewBox="0 0 22 23" fill="none" xmlns="http://www.w3.org/2000/svg">
<line x1="0.5" y1="3.70923" x2="12.5" y2="3.70923" stroke="black"/>
<line x1="0.5" y1="21.603" x2="18.5" y2="21.603" stroke="black"/>
<line x1="1" y1="3.98218" x2="1" y2="21.9822" stroke="black"/>
<line x1="18" y1="10.2092" x2="18" y2="22.2092" stroke="black"/>
<path d="M9.16215 11.8404L8.79356 12.1782L9.46925 12.9154L9.83785 12.5776L9.16215 11.8404ZM21.9995 1.2317C22.0115 0.955819 21.7976 0.722439 21.5217 0.710433L17.026 0.514767C16.7501 0.50276 16.5167 0.716672 16.5047 0.992553C16.4927 1.26843 16.7066 1.50181 16.9825 1.51382L20.9787 1.68775L20.8048 5.68396C20.7928 5.95984 21.0067 6.19322 21.2826 6.20523C21.5585 6.21724 21.7919 6.00333 21.8039 5.72744L21.9995 1.2317ZM9.83785 12.5776L21.8378 1.57855L21.1622 0.841368L9.16215 11.8404L9.83785 12.5776Z" fill="black"/>
</svg>
